<svg xmlns="http://www.w3.org/2000/svg" width="43" height="54"><path d="M24.407 28.275l.423 1.34c.494-.14.988-.353 1.4-.635l-.705-1.2c-.353.2-.776.353-1.13.493zm-1.835.212l-.07 1.4h.353c.423 0 .776 0 1.2-.07l-.212-1.4c-.423.07-.847.07-1.27.07zm5.504-5.857l1.4-.14c-.07-.494-.212-.988-.353-1.482l-1.34.494c.14.282.283.705.283 1.13zm-.776 3.53l1.2.776c.282-.424.494-.917.705-1.4l-1.34-.494-.564 1.13zm-1.27 1.268l.847 1.13c.423-.283.776-.635 1.13-1.06l-1.13-.847a2.99 2.99 0 0 1-.847.776zm-5.786 1.976a5.86 5.86 0 0 0 1.481.423l.212-1.4c-.423-.07-.776-.2-1.2-.353l-.493 1.34zm-2.6-5.574l-1.4.14c.07.494.2.988.353 1.482l1.34-.494c-.14-.282-.212-.705-.283-1.13zm1.623 3.246l-.988 1.06c.353.353.776.635 1.27.917l.706-1.2-.988-.776zm-1.07-1.482l-1.27.635c.212.494.494.917.847 1.27l1.058-.917c-.212-.282-.494-.635-.635-.987zm.282-5.22l-1.2-.776c-.282.423-.494.917-.705 1.4l1.34.494c.14-.423.353-.776.565-1.13zm9.102.493l1.27-.635c-.2-.494-.494-.917-.847-1.27l-1.13.847c.282.353.494.705.705 1.058zm-9.95 2.54a7.04 7.04 0 0 1 .14-1.27l-1.34-.282a5.36 5.36 0 0 0-.21 1.623h.07l1.34-.07zm3.74-5.22l-.423-1.34c-.494.14-.988.353-1.4.635l.706 1.2a6.12 6.12 0 0 1 1.13-.494zm-1.623.846l-.847-1.13c-.423.282-.776.705-1.13 1.06l1.058.917.917-.847zm12.065 3.8H23.35v-9.95c0-.423-.282-.705-.706-.705s-.705.282-.705.705v3.74h-.212l.212 1.4v5.433c0 .423.282.706.705.706h5.433c0 .07-.07.2-.07.282l1.4.353c.07-.2.07-.423.14-.564h2.258c.423 0 .706-.283.706-.706s-.282-.705-.706-.705zm-4.375-4.516c-.353-.353-.776-.635-1.27-.917l-.705 1.2c.353.283.705.494.987.776l.988-1.058zm-1.973-1.19a5.83 5.83 0 0 0-1.482-.423l-.2 1.4c.423.07.776.2 1.2.353l.494-1.34zm8.9-5.575l-.212-.2h-.07c-3.104-3.105-7.196-4.727-11.5-4.727s-8.326 1.693-11.36 4.656c-6.2 6.2-6.2 16.37-.07 22.86l.07.07s.07 0 .07.07l.2.2c3.175 3.175 7.4 4.94 11.854 4.94 4.233 0 8.255-1.693 11.3-4.656 6.35-6.35 6.2-16.722-.282-23.213zm-.283 21.66l-.988-.987a.68.68 0 1 0-.987.987l.987.988c-2.68 2.47-6.138 3.8-9.878 3.8-3.95 0-7.7-1.552-10.583-4.304l.988-.988a.68.68 0 0 0 0-.987.68.68 0 0 0-.988 0l-.988.987c-4.94-5.785-5-14.323.07-19.896l.988.987c.14.14.353.212.494.212a.76.76 0 0 0 .493-.212.68.68 0 0 0 0-.987l-.987-.988c2.68-2.47 6.138-3.8 9.878-3.8s7.268 1.34 10.02 3.8l-.988.988a.68.68 0 0 0 0 .987.76.76 0 0 0 .494.212.76.76 0 0 0 .494-.212l.987-.987c5.504 5.785 5.715 14.675.494 20.4zm11.138 2.824l-3.316-8.678c1.34-5.574.212-11.713-3.386-16.44l1.552-1.552a.64.64 0 0 0 .211-.494.64.64 0 0 0-.211-.493l-2.893-2.893a.68.68 0 0 0-.988 0L34.637 6.97c-3.387-2.6-7.55-4.022-11.924-4.022-1.623 0-3.175.2-4.656.565L8.884.123c-.282-.07-.564 0-.705.14L.276 8.167c-.212.212-.283.494-.14.776l3.528 8.396c-1.905 6.703-.282 14.182 5 19.474a19.58 19.58 0 0 0 13.97 5.786 20.01 20.01 0 0 0 4.657-.565l9.313 3.316c.07 0 .14.07.212.07a.64.64 0 0 0 .494-.212l7.76-8.467c.212-.2.212-.494.14-.705zm-8.538-29.14l1.905 1.905-.988.987c-.282-.353-.635-.705-.917-.987s-.635-.565-.917-.847l.917-1.06zM1.688 8.73l7.196-7.126 2.187.776-8.537 8.467-.847-2.117zm1.34 3.598l9.454-9.384 3.316 1.2c-2.68.988-5.08 2.54-7.126 4.586a20.17 20.17 0 0 0-4.374 6.562l-1.27-2.963zM26.735 40.7c-1.34.282-2.752.494-4.163.494-4.94 0-9.525-1.905-12.982-5.362-7.126-7.197-7.126-18.838.07-26.035 3.457-3.457 8.114-5.432 13.053-5.432a18.31 18.31 0 0 1 12.983 5.362c4.656 4.656 6.28 11.148 4.868 17.145-.07.14-.14.353-.14.494-.776 3.104-2.4 5.997-4.798 8.396-2.328 2.328-5.22 4.02-8.326 4.798a.55.55 0 0 0-.565.141zm2.752.635c2.68-.988 5.08-2.54 7.126-4.586 2.117-2.117 3.67-4.586 4.586-7.196l1.13 2.893-9.525 10.1-3.316-1.2zm7.056 2.47l-2.258-.776 8.608-9.102.776 2.117-7.126 7.76z" transform="matrix(.906308 .422618 -.422618 .906308 9.649353 -3.649902)" fill="#32AEDC" fill-rule="evenodd"/></svg>