<svg xmlns="http://www.w3.org/2000/svg" width="46" height="49" fill="#F7BC31" fill-rule="evenodd"><path d="M7.415 28.674c.52.138 1.046.053 1.477-.196a1.93 1.93 0 0 0 .901-1.176 1.94 1.94 0 0 0-.197-1.477 1.92 1.92 0 0 0-1.175-.9c-.515-.136-1.046-.053-1.477.196a1.93 1.93 0 0 0-.901 1.176l-.001.006c-.138.52-.053 1.044.196 1.473a1.93 1.93 0 0 0 1.175.898l.002.001zm2.398 1.395a3.77 3.77 0 0 1-2.866.383l-.006-.001h-.004a3.77 3.77 0 0 1-2.292-1.755 3.76 3.76 0 0 1-.382-2.862l.001-.006c.268-1 .92-1.814 1.757-2.3a3.77 3.77 0 0 1 2.866-.383c1.006.267 1.814.92 2.3 1.758a3.77 3.77 0 0 1-1.375 5.167zM14.1 15.166v.004a3.77 3.77 0 0 1-4.624 2.68c-1-.27-1.815-.92-2.3-1.76s-.65-1.86-.383-2.866l.008-.03c.273-.997.922-1.8 1.75-2.27.838-.484 1.86-.65 2.866-.383l.03.007h.006c.995.273 1.788.92 2.267 1.75.484.837.65 1.86.383 2.866zm-1.775-.48a1.94 1.94 0 0 0-.2-1.463c-.248-.43-.66-.765-1.176-.9l-.03-.008a1.94 1.94 0 0 0-1.448.203c-.43.25-.764.66-.9 1.176l-.007.03a1.94 1.94 0 0 0 .203 1.447c.248.43.66.765 1.176.902a1.94 1.94 0 0 0 2.378-1.376l.004-.01zm9.045 8.54c.594.366.925-.018 1.282-.655l.854-1.6.514-.878.403-.684c.36-.642.52-1.136-.076-1.502a2.81 2.81 0 0 0-2.232-.325 2.99 2.99 0 0 0-1.795 1.426c-.4.726-.496 1.575-.306 2.34a3.07 3.07 0 0 0 1.355 1.886zm2.937.364c-.934 1.67-1.87 2.63-3.908 1.374-1.157-.715-1.93-1.854-2.243-3.12a5.31 5.31 0 0 1 .509-3.866c.68-1.217 1.765-2.03 2.97-2.358a4.64 4.64 0 0 1 3.684.539c2.04 1.257 1.697 2.588.76 4.26l-.433.74-.484.823-.855 1.608zM20.244 5.93a1.38 1.38 0 0 0-1.046.141 1.37 1.37 0 0 0-.642.836v-.005a1.38 1.38 0 0 0 .139 1.044 1.37 1.37 0 0 0 .836.641h.005l.01.004a1.38 1.38 0 0 0 1.037-.144 1.37 1.37 0 0 0 .642-.836l.001-.002v-.003a1.37 1.37 0 0 0-.14-1.044 1.37 1.37 0 0 0-.835-.641h-.006zm-1.933-1.4c.697-.404 1.548-.543 2.386-.32h.006a3.14 3.14 0 0 1 1.912 1.465 3.15 3.15 0 0 1 .32 2.384v.005l-.004.01c-.227.834-.768 1.5-1.462 1.902a3.14 3.14 0 0 1-2.386.32h-.005a3.14 3.14 0 0 1-1.913-1.465c-.403-.698-.54-1.548-.32-2.385V6.44a3.15 3.15 0 0 1 1.466-1.913zm9.543-3.446l.663.2.653.208.004.004a9.45 9.45 0 0 1 2.438 1.241c1.708 1.2 2.926 2.932 3.55 4.85s.66 4.035-.002 6.04a9.7 9.7 0 0 1-1.231 2.473c-.906 1.314-1.803 2.74-2.564 4.2-.748 1.42-1.363 2.862-1.722 4.233s-.533 2.933-.582 4.542c-.05 1.645.027 3.335.168 4.932.084.954.03 1.88-.146 2.765a9.62 9.62 0 0 1-2.964 5.239 9.36 9.36 0 0 1-5.455 2.417 9.34 9.34 0 0 1-2.717-.154h-.004l-.67-.146-.67-.174-.01-.003C10.75 42.35 6.1 38.533 3.3 33.63S-.455 22.736 1.097 16.817l.003-.01C2.656 10.887 6.427 6.17 11.27 3.325S22.02-.5 27.854 1.084zm.125 2.02l-.604-.174a19.73 19.73 0 0 0-15.163 2.045c-4.425 2.6-7.87 6.9-9.3 12.316v.012a20.49 20.49 0 0 0 2 15.37c2.55 4.482 6.808 7.97 12.143 9.4l.01.003.007.004a17.8 17.8 0 0 0 .612.153l.62.14a7.5 7.5 0 0 0 2.183.124c1.654-.15 3.174-.856 4.363-1.938a7.7 7.7 0 0 0 2.374-4.192c.14-.708.184-1.456.117-2.226-.147-1.667-.228-3.432-.176-5.15.053-1.753.244-3.46.64-4.976s1.07-3.096 1.884-4.644c.8-1.52 1.737-3.012 2.682-4.383a7.77 7.77 0 0 0 .987-1.987 7.77 7.77 0 0 0-.006-4.837 7.66 7.66 0 0 0-2.836-3.885c-.58-.4-1.233-.748-1.954-.992l-.6-.192zm7.76 22.474l1.866-21.655c.058-.657.358-1.24.803-1.656s1.042-.674 1.685-.674a2.46 2.46 0 0 1 1.692.677 2.58 2.58 0 0 1 .8 1.67l1.88 22.86-1.175-.185c-.008-.001-1.13.001-2.458 0a1154 1154 0 0 0-4.087.002l-1.102.084.097-1.123zM39.47 4.1h.004l-1.772 20.6h3.13l1.576.003-1.695-20.606a.64.64 0 0 0-.197-.417.61.61 0 0 0-.422-.167c-.165 0-.314.062-.423.164a.65.65 0 0 0-.201.415zm5.102 30.756a10.09 10.09 0 0 1 .862 2.264c.2.773.293 1.578.293 2.402a9.99 9.99 0 0 1-1.208 4.777 9.91 9.91 0 0 1-3.341 3.608l-.492.317-.493-.317a9.91 9.91 0 0 1-3.341-3.608 9.98 9.98 0 0 1-1.207-4.777 10.01 10.01 0 0 1 .292-2.41 9.91 9.91 0 0 1 .863-2.257l.262-.496h7.25l.26.496zm-.92 2.716a8.24 8.24 0 0 0-.458-1.345h-5.017a8.03 8.03 0 0 0-.456 1.337 8.13 8.13 0 0 0-.235 1.957 8.15 8.15 0 0 0 .977 3.88 8.06 8.06 0 0 0 2.224 2.585 8.07 8.07 0 0 0 2.222-2.586 8.11 8.11 0 0 0 .978-3.879 8.14 8.14 0 0 0-.235-1.95z"/><path d="M36.064 26.863c.145-.042 2.093-.064 3.996-.064l3.996.064-.001.003c.487.14.906.44 1.202.842s.47.894.47 1.424v2.872a2.39 2.39 0 0 1-.67 1.667 2.25 2.25 0 0 1-1.618.691h-6.765a2.25 2.25 0 0 1-1.618-.69c-.414-.426-.67-1.016-.67-1.667v-2.872l.004-.008c.005-.536.18-1.028.472-1.42.298-.4.718-.7 1.205-.838l-.001-.003zm3.996 2c-1.766 0-3.414-.027-3.45-.016h-.01c-.062.018-.116.057-.156.1a.32.32 0 0 0-.066.183h.003v2.872c0 .083.033.16.086.214a.29.29 0 0 0 .208.088h6.765a.29.29 0 0 0 .207-.088c.053-.054.087-.13.087-.214V29.13c0-.076-.02-.14-.056-.188s-.1-.1-.152-.106h-.012c-.037-.01-1.685.016-3.45.016zm-22.563 8.643c.52.138 1.047.053 1.477-.196a1.93 1.93 0 0 0 .901-1.176c.138-.52.053-1.046-.196-1.477s-.66-.764-1.176-.9-1.046-.053-1.477.196a1.93 1.93 0 0 0-.901 1.176l-.002.005c-.138.52-.053 1.044.196 1.473a1.93 1.93 0 0 0 1.176.898l.002.001zm2.4 1.396c-.837.484-1.86.65-2.866.383l-.006-.001h-.003a3.77 3.77 0 0 1-2.292-1.755 3.76 3.76 0 0 1-.382-2.862l.001-.006c.268-1 .92-1.814 1.758-2.3a3.77 3.77 0 0 1 2.866-.384c1 .27 1.814.92 2.3 1.758a3.77 3.77 0 0 1 .383 2.867 3.8 3.8 0 0 1-1.757 2.3z"/></svg>