<svg xmlns="http://www.w3.org/2000/svg" width="45" height="33"><path d="M42.96 12.88c0 1.51-1.23 2.74-2.74 2.74H25.596v-.2c0-1.51-1.23-2.74-2.74-2.74h-.47c-1.51 0-2.74 1.23-2.74 2.74v.2H4.566c-1.51 0-2.74-1.23-2.74-2.74v-3.35c0-1.51 1.23-2.74 2.74-2.74H40.22c1.51 0 2.74 1.23 2.74 2.74v3.35zm-21.487 4.756V15.43c0-.503.4-.914.913-.914h.47c.504 0 .913.41.913.914v2.206c0 .504-.41.914-.913.914h-.47c-.504 0-.913-.41-.913-.914zm21.487 10.18c0 1.51-1.23 2.74-2.74 2.74H4.566c-1.51 0-2.74-1.23-2.74-2.74v-11.29c.764.576 1.71.922 2.74.922h15.08v.19c0 1.51 1.23 2.74 2.74 2.74h.47c1.51 0 2.74-1.23 2.74-2.74v-.19H40.22a4.54 4.54 0 0 0 2.74-.922v11.29zM17.028 3.73c0-1.032 1.255-1.903 2.74-1.903h5.25c1.485 0 2.74.87 2.74 1.903v1.236h-10.73V3.73zM40.22 4.966H29.585V3.73c0-2.057-2.05-3.73-4.566-3.73h-5.25C17.25 0 15.2 1.673 15.2 3.73v1.236H4.566C2.048 4.966 0 7.015 0 9.532v18.283c0 2.518 2.048 4.566 4.566 4.566H40.22c2.518 0 4.566-2.05 4.566-4.566V9.532c0-2.518-2.05-4.566-4.566-4.566z" fill="#F7BC31" fill-rule="evenodd"/></svg>