<svg xmlns="http://www.w3.org/2000/svg" width="30" height="38"><path d="M13.93 29.73c0 .488.42.882.938.882s.938-.394.938-.882v-9.847c0-.488-.42-.882-.937-.882s-.937.394-.937.882v9.847zm5.865-9.612c-.415.176-.617.68-.45 1.122l.115.3c.858 2.292 1.338 4.706 1.427 7.175.017.465.375.83.806.83l.03-.001c.447-.018.794-.42.776-.896a24.57 24.57 0 0 0-1.541-7.75l-.115-.308c-.166-.444-.64-.66-1.05-.483m-9.585.008c-.408-.17-.88.037-1.044.464l-.114.295A22.85 22.85 0 0 0 7.5 29.18v1.66c0 .46.36.83.803.83s.803-.37.803-.83v-1.66c0-2.645.483-5.233 1.435-7.7l.115-.297c.165-.425-.036-.908-.45-1.077m12.782-5.346a.9.9 0 0 0-1.244-.111.85.85 0 0 0-.112 1.217C25.688 20.64 28 26.618 28.22 32.8c-4.216-2.6-10.06-2.22-13.8 1.105-1.723 1.526-4.02 2.367-6.467 2.367-2.113 0-4.17-.65-5.792-1.826-.24-.174-.385-.444-.385-.72 0-6.5 2.345-12.85 6.604-17.852l2.015-2.367a.85.85 0 0 0 .079-.998c-1.65-2.7-2.52-5.77-2.52-8.9V1.756c1.946.13 3.597.7 4.915 1.677a3.61 3.61 0 0 0 4.288 0c1.317-.986 2.968-1.548 4.915-1.677V3.6a17.04 17.04 0 0 1-2.272 8.49h-6.55c-.488 0-.882.386-.882.864s.394.864.882.864h7.06a.9.9 0 0 0 .756-.42 18.75 18.75 0 0 0 2.773-9.8v-2.734c0-.478-.394-.864-.882-.864-2.73 0-5.04.694-6.87 2.06a1.82 1.82 0 0 1-2.144 0C12.1.694 9.8 0 7.06 0c-.488 0-.882.386-.882.864V3.6a18.73 18.73 0 0 0 2.457 9.264L7.012 14.77C2.5 20.08 0 26.813 0 33.728c0 .82.4 1.607 1.1 2.107C3.023 37.23 5.453 38 7.94 38c2.885 0 5.604-1 7.65-2.815 3.3-2.925 8.516-3.137 12.102-.645-2.493 1.728-5.862 2.217-8.877 1.2-.462-.155-.964.087-1.12.538a.86.86 0 0 0 .55 1.096 11.96 11.96 0 0 0 3.794.612c2.813 0 5.58-.974 7.644-2.8.003-.003.024-.022.023-.023.18-.16.292-.4.292-.637v-.82c0-6.913-2.5-13.646-7.012-18.958" fill="#32AEDC" fill-rule="evenodd"/></svg>