<svg xmlns="http://www.w3.org/2000/svg" viewBox="0 0 47 37"><style><![CDATA[.A{fill:#DC4250}]]></style><path class="A" d="M42 33.8h-1v-1.6h1c1.8 0 3.2-1.5 3.2-3.2v-2c0-1.8-1.5-3.2-3.2-3.2h-1v-1.6h1a4.91 4.91 0 0 1 4.9 4.9V29c-.1 2.6-2.3 4.8-4.9 4.8zM5.8 23H4.2v-3.7C4.2 8.8 12.9.2 23.5.2c10.7 0 19.3 8.6 19.3 19.1v1.3h-1.6v-1.3c0-9.6-7.9-17.5-17.7-17.5S5.8 9.6 5.8 19.3V23zm4-4.9l-1.6-.2c.9-7.8 7.8-13.7 16-13.7 3.9 0 7.7 1.4 10.6 3.8.1.1.2.1.3.2l1.1 1-3.8 3.6-.6-.5c-2.1-1.8-4.8-2.8-7.6-2.8s-5.5 1-7.6 2.8l-.6.5-2.6-2.5c-1.9 2.1-3.3 4.8-3.6 7.8zM24.2 7.9c3 0 5.8 1 8.1 2.7l1.5-1.4c-2.6-2.2-6-3.4-9.6-3.4-3.7 0-7 1.3-9.6 3.4l1.5 1.4c2.3-1.7 5.2-2.7 8.1-2.7zM39.8 22h-1.6v-2c0-3.1-1-6-2.8-8.6l1.3-1c2.1 2.8 3.2 6.1 3.2 9.5V22z"/><path class="A" d="M38.1 36.8h-4.9V21.2h4.9c2 0 3.7 1.6 3.7 3.7v8.3c0 2-1.6 3.6-3.7 3.6zm-3.3-1.6h3.3c1.1 0 2.1-.9 2.1-2v-8.3c0-1.1-.9-2-2.1-2h-3.3v12.3zm-28-1.4H5a4.91 4.91 0 0 1-4.9-4.9V27A4.91 4.91 0 0 1 5 22.1h1.8v11.7zM5 23.8c-1.8 0-3.2 1.5-3.2 3.2v2c0 1.8 1.5 3.2 3.2 3.2h.1v-8.4H5z"/><path class="A" d="M13.8 36.8H8.9c-2 0-3.7-1.6-3.7-3.7v-8.3a3.76 3.76 0 0 1 3.7-3.7h4.9v15.7zm-4.9-14c-1.1 0-2.1.9-2.1 2v8.3c0 1.1.9 2 2.1 2h3.3V22.8H8.9z"/></svg>