<svg xmlns="http://www.w3.org/2000/svg" width="43" height="50"><path d="M28.44 36.924c.954 0 .955-1.444 0-1.444s-.955 1.444 0 1.444zm-14.01-16.33c-.954 0-.955 1.444 0 1.444s.955-1.444 0-1.444zm8.28-16.884h1.398c0-1.55-1.26-2.8-2.8-2.8s-2.8 1.26-2.8 2.8h1.398c0-1.866 2.824-1.866 2.824 0zm9.146 14.383a15.17 15.17 0 0 0-1.478-1.277l-.844 1.114a13.73 13.73 0 0 1 1.34 1.159l.982-.996zm-4.865-3.21l-.528 1.294a13.73 13.73 0 0 1 1.593.776l.693-1.215c-.565-.323-1.157-.6-1.758-.856zM32.06 20.4c.363.463.7.955 1 1.463l1.203-.713a15.28 15.28 0 0 0-1.103-1.612l-1.1.862zm3.738 4.334a15.13 15.13 0 0 0-.65-1.842l-1.285.55a13.48 13.48 0 0 1 .59 1.67l1.346-.378zM10.783 39.598a14.99 14.99 0 0 0 1.483 1.271l.84-1.118a13.72 13.72 0 0 1-1.345-1.154l-.977 1zm4.878 3.2l.524-1.296a13.66 13.66 0 0 1-1.596-.77L13.9 41.94c.566.32 1.16.605 1.76.85zM6.82 32.96a15.25 15.25 0 0 0 .657 1.841l1.284-.556c-.234-.54-.434-1.102-.596-1.668l-1.345.383zm3.754 4.32c-.364-.462-.703-.953-1.006-1.46l-1.2.718a15.32 15.32 0 0 0 1.108 1.608l1.098-.866zM7.12 29.903c.252 0 .456-.205.456-.457 0-1.052.128-1.7-.456-1.7-6.452 0-5.62-.452-5.62 1.7 0 .628.31.457 5.62.457zM20.222 14.53c0 .438.356.794.794.794h.57c.438 0 .794-.356.794-.794v-4.488c0-.438-.357-.794-.794-.794h-.57c-.438 0-.794.356-.794.794v4.488zM7.12 31.302H1.957c-1.024 0-1.855-.832-1.855-1.855v-1.244c0-1.023.83-1.855 1.855-1.855h4.5c1.048-6.353 6.017-11.325 12.376-12.376v-3.93c0-1.21.983-2.192 2.192-2.192h.57c1.21 0 2.192.983 2.192 2.192v3.937c.458.076.915.166 1.36.283l-.355 1.352c-.385-.102-.78-.18-1.174-.247-.618 1.49-2.098 1.355-2.594 1.355-.9 0-1.69-.558-2.022-1.35A13.6 13.6 0 0 0 7.852 26.5c1.3.56 1.122 1.786 1.122 2.947a1.86 1.86 0 0 1-1.855 1.855zm33.56-2.75c0-.445-.362-.806-.806-.806H35.41c-.445 0-.806.362-.806.806 0 1.7.033 1.35 5.27 1.35.445 0 .806-.362.806-.806v-.544zM22.434 42.9c0-.317-.26-.575-.575-.575-.757 0-1.583-.148-1.583.575v4.926c0 .317.258.575.575.575.757 0 1.582.147 1.582-.575V42.9zM42.08 28.553v.544a2.21 2.21 0 0 1-2.205 2.205H36.14a15.03 15.03 0 0 1-12.309 12.354v4.17c0 1.088-.886 1.973-1.973 1.973H20.85c-1.088 0-1.973-.885-1.973-1.973V43.68c-.457-.074-.913-.162-1.36-.277l.35-1.354a13.9 13.9 0 0 0 1.12.233c.52-1.56 2.06-1.354 2.872-1.354a1.97 1.97 0 0 1 1.856 1.332 13.63 13.63 0 0 0 11.027-11.072c-2.367-.76-1.96-4.838.668-4.838h4.464a2.21 2.21 0 0 1 2.205 2.205zM17.26 12.72V9.482c0-1.995 1.623-3.617 3.617-3.617h.845c1.995 0 3.618 1.622 3.618 3.617v3.375c6.548 1.96 10.73 6.698 12.045 12.506l1.364-.31a18.2 18.2 0 0 0-12.011-13.231v-2.342c0-2.766-2.25-5.016-5.016-5.016h-.845c-2.765 0-5.016 2.25-5.016 5.016v2.167A18.2 18.2 0 0 0 3.293 25.054l1.364.31c1.306-5.77 5.566-10.794 12.603-12.644zm1.1 12.318l.57 1.277 8.23-3.664-3.38 8.552 1.3.515 4.64-11.736-11.36 5.057zm-3.798 10.45l7.3-3.25-.597-.597-6.3 2.8-.414 1.047zm3-7.562l-.486 1.23 1.187-.53-.7-.7zm-1.84 4.657l4.497-2.002-.895-.896L16.333 31l-.62 1.57zm8.58.104l-12.288 5.47 5.033-12.727 7.255 7.256zm.064 12.843l.276 1.37a18.18 18.18 0 0 0 14.244-14.397l-1.374-.262a16.78 16.78 0 0 1-13.146 13.289zm-6.28.074l-.244 1.377a18.18 18.18 0 0 1-14.67-14.502l1.374-.26c1.27 6.705 6.57 12.15 13.54 13.385z" fill="#DC4250" fill-rule="evenodd"/></svg>