<svg xmlns="http://www.w3.org/2000/svg" width="46" height="39"><path d="M32.64 9.793a.8.8 0 0 0 .54.207.81.81 0 0 0 .616-.286.85.85 0 0 0-.076-1.183l-.362-.324c-.34-.305-.857-.27-1.155.08a.85.85 0 0 0 .076 1.182l.362.324m-21.61-5.82h2.665v3.802l-2.665 2.307v-6.1zm20.75 33.314h-4.864v-8c0-1.326 1.1-2.406 2.432-2.406s2.433 1.08 2.433 2.406v8zM.866 20.877h6.746v17.266c0 .472.388.856.866.856h7.425a.86.86 0 0 0 .865-.856.86.86 0 0 0-.865-.856h-6.56v-16.4h27.314v16.4h-3.145v-8c0-2.27-1.867-4.12-4.164-4.12s-4.163 1.848-4.163 4.12v8h-2.532a.86.86 0 0 0-.866.856c0 .472.388.856.866.856H37.52a.86.86 0 0 0 .866-.856V20.877h6.746c.36 0 .683-.22.8-.555a.85.85 0 0 0-.241-.945l-10.146-8.785c-.36-.312-.907-.276-1.222.08a.85.85 0 0 0 .081 1.208l8.414 7.285H3.17L23 1.994l6.23 5.393a.87.87 0 0 0 1.222-.081.85.85 0 0 0-.081-1.208L23.57.212a.87.87 0 0 0-1.14 0l-7.004 6.064v-3.16c0-.473-.388-.857-.866-.857h-4.395a.86.86 0 0 0-.865.857v8.464L.296 19.377a.85.85 0 0 0-.241.945c.128.334.45.555.8.555z" fill="#F7BC31" fill-rule="evenodd"/></svg>