<?xml version="1.0" encoding="UTF-8"?>
<svg width="45px" height="38px" viewBox="0 0 45 38" version="1.1" xmlns="http://www.w3.org/2000/svg" xmlns:xlink="http://www.w3.org/1999/xlink">
    <!-- Generator: Sketch 51.3 (57544) - http://www.bohemiancoding.com/sketch -->
    <title>Illustration_Motors</title>
    <desc>Created with Sketch.</desc>
    <defs>
        <path d="M4.13638668,19.6607799 C4.74349302,19.167789 5.43065091,18.8455385 6.15637379,18.7039347 C6.43334049,18.6503234 6.70680129,18.622935 6.97149731,18.6211868 C7.98061439,20.8408113 10.1992696,22.2941438 12.6826208,22.2941438 L31.4865564,22.2941438 C33.9704919,22.2941438 36.1885628,20.8402286 37.1976799,18.6200214 L37.802449,18.6200214 C37.9520344,18.6200214 38.0998668,18.6293451 38.245362,18.6450788 C38.2471149,18.6450788 38.2482836,18.6444961 38.2500365,18.6450788 C39.1218389,18.733654 39.9498174,19.0792138 40.6667755,19.6607799 C42.1842492,20.8938399 42.8947798,23.1157953 42.4758238,25.322017 L41.7576971,29.1039447 C41.6092803,29.8836396 40.9238754,30.4500546 40.1286187,30.4500546 L30.6246874,30.4500546 L30.6246874,28.148265 C30.6246874,27.6657633 30.2320258,27.2741677 29.7482105,27.2741677 L15.0549517,27.2741677 C14.5711364,27.2741677 14.1784748,27.6657633 14.1784748,28.148265 L14.1784748,30.4500546 L4.6745435,30.4500546 C3.87870247,30.4500546 3.19388185,29.8836396 3.04546509,29.1039447 L2.32675403,25.322017 C1.90838238,23.1157953 2.61832868,20.8938399 4.13638668,19.6607799 Z M35.1934694,18.6200214 C34.3631536,19.8064628 32.9911751,20.5459491 31.4865564,20.5459491 L12.6826208,20.5459491 C11.1774178,20.5459491 9.80543931,19.8064628 8.97453921,18.6200214 L35.1934694,18.6200214 Z M10.43884,4.37048666 C10.7818346,3.06575071 11.966247,2.15552402 13.3177744,2.15552402 L31.0249452,2.15552402 C32.3764726,2.15552402 33.5608851,3.06575071 33.9032954,4.37048666 L37.1918367,16.8718267 L7.14971429,16.8718267 L10.43884,4.37048666 Z M38.0835059,35.3817118 C38.0683136,35.5373011 37.8468571,35.7109551 37.5511923,35.7109551 L35.2799484,35.7109551 C35.095304,35.7109551 34.9240988,35.6445237 34.8218432,35.5326392 C34.7669173,35.4726179 34.7417916,35.4102656 34.7476348,35.3479133 L35.0415467,32.1982493 L38.3803394,32.1982493 L38.0835059,35.3817118 Z M15.9314286,32.0018688 L28.8717336,32.0018688 L28.8717336,29.0223623 L15.9314286,29.0223623 L15.9314286,32.0018688 Z M9.72188185,35.3479133 C9.72714071,35.4102656 9.70259936,35.4726179 9.64767347,35.5326392 C9.54541783,35.6445237 9.37421267,35.7109551 9.18956821,35.7109551 L6.91832438,35.7109551 C6.62265951,35.7109551 6.40061869,35.5373011 6.38601074,35.3822945 L6.08976155,32.1982493 L9.42796992,32.1982493 L9.72188185,35.3479133 Z M1.32348013,29.4296917 C1.60570569,30.9174053 2.84270677,32.0146889 4.32687433,32.1673645 L4.64065306,35.5448766 C4.7429087,36.6363328 5.72222556,37.4591498 6.91832438,37.4591498 L9.18956821,37.4591498 C9.86912997,37.4591498 10.5077895,37.1858487 10.9436907,36.7103397 C11.3328464,36.2837802 11.5186595,35.7424226 11.4666552,35.185914 L11.1879356,32.1982493 L14.1784748,32.1982493 L14.1784748,32.8759661 C14.1784748,33.3584678 14.5711364,33.7500634 15.0549517,33.7500634 L29.7482105,33.7500634 C30.2320258,33.7500634 30.6246874,33.3584678 30.6246874,32.8759661 L30.6246874,32.1982493 L33.2809968,32.1982493 L33.0022771,35.185914 C32.9508571,35.7424226 33.1366702,36.2837802 33.5264103,36.7103397 C33.9611429,37.1858487 34.6003867,37.4591498 35.2799484,37.4591498 L37.5511923,37.4591498 C38.7472911,37.4591498 39.7260236,36.6363328 39.8282793,35.5442939 L40.140305,32.1970838 C41.7717207,32.1912565 43.1752524,31.0298725 43.4796821,29.4296917 L44.1983931,25.6471812 C44.7353813,22.8203504 43.7841117,19.9375774 41.7734737,18.3053463 C40.9542599,17.6398669 40.0240258,17.2022355 39.0388657,17.0011931 L35.5995704,3.92644521 C35.0538174,1.85425181 33.172898,0.407329356 31.0249452,0.407329356 L13.3177744,0.407329356 C11.1698217,0.407329356 9.28890226,1.85425181 8.7431493,3.92644521 L5.27171643,17.1224013 C4.46886359,17.3572421 3.71100322,17.7517513 3.02968851,18.3053463 C1.01905048,19.9375774 0.0677808808,22.8203504 0.604769066,25.6471812 L1.32348013,29.4296917 Z" id="path-1"></path>
        <path d="M4.72129193,2.34805195 L22.6399006,2.34805195 L24.946882,11.1002597 L23.3297888,11.1002597 C22.9040497,8.6774026 20.7813168,6.82805195 18.2280745,6.82805195 C15.6748323,6.82805195 13.5520994,8.6774026 13.1263602,11.1002597 L2.41550311,11.1002597 L4.72129193,2.34805195 Z M19.1224845,11.1002597 L19.1224845,8.74033395 C20.2750807,9.05558442 21.1891677,9.95146568 21.504,11.1002597 L19.1224845,11.1002597 Z M17.3336646,11.1002597 L14.9515528,11.1002597 C15.2669814,9.95146568 16.1810683,9.05558442 17.3336646,8.74033395 L17.3336646,11.1002597 Z M1.25575155,12.8813358 L26.1060373,12.8813358 C26.3833043,12.8813358 26.6450683,12.7530983 26.8144099,12.5346197 C26.9837516,12.316141 27.0421863,12.0317625 26.9712298,11.7646011 L24.3518012,1.82441558 C24.1580124,1.08408163 23.4854161,0.566975881 22.7156273,0.566975881 L4.64616149,0.566975881 C3.87756522,0.566975881 3.20437267,1.08408163 3.00998758,1.8232282 L0.390559006,11.7646011 C0.320198758,12.0317625 0.37863354,12.316141 0.547975155,12.5346197 C0.71731677,12.7530983 0.979080745,12.8813358 1.25575155,12.8813358 Z" id="path-3"></path>
        <path d="M3.41746939,2.3275102 C4.00457143,2.3275102 4.48130612,2.8042449 4.48130612,3.39134694 C4.48130612,3.97779592 4.00457143,4.45518367 3.41746939,4.45518367 C2.83102041,4.45518367 2.35428571,3.97779592 2.35428571,3.39134694 C2.35428571,2.8042449 2.83102041,2.3275102 3.41746939,2.3275102 Z M3.41746939,6.41436735 C5.08473469,6.41436735 6.4404898,5.05861224 6.4404898,3.39134694 C6.4404898,1.72408163 5.08473469,0.368326531 3.41746939,0.368326531 C1.75085714,0.368326531 0.395102041,1.72408163 0.395102041,3.39134694 C0.395102041,5.05861224 1.75085714,6.41436735 3.41746939,6.41436735 Z" id="path-5"></path>
        <path d="M3.23027829,2.3275102 C3.76400742,2.3275102 4.1974026,2.8042449 4.1974026,3.39134694 C4.1974026,3.97779592 3.76400742,4.45518367 3.23027829,4.45518367 C2.69714286,4.45518367 2.26374768,3.97779592 2.26374768,3.39134694 C2.26374768,2.8042449 2.69714286,2.3275102 3.23027829,2.3275102 Z M3.23027829,6.41436735 C4.74597403,6.41436735 5.97847866,5.05861224 5.97847866,3.39134694 C5.97847866,1.72408163 4.74597403,0.368326531 3.23027829,0.368326531 C1.71517625,0.368326531 0.482671614,1.72408163 0.482671614,3.39134694 C0.482671614,5.05861224 1.71517625,6.41436735 3.23027829,6.41436735 Z" id="path-7"></path>
    </defs>
    <g id="Styleguide" stroke="none" stroke-width="1" fill="none" fill-rule="evenodd">
        <g transform="translate(-337.000000, -2018.000000)" id="Group-7">
            <g transform="translate(336.000000, 2018.000000)">
                <g id="Illustration_Motors" transform="translate(0.795918, 0.428571)">
                    <g id="Group-213">
                        <mask id="mask-2" fill="white">
                            <use xlink:href="#path-1"></use>
                        </mask>
                        <g id="Clip-212"></g>
                        <path d="M4.13638668,19.6607799 C4.74349302,19.167789 5.43065091,18.8455385 6.15637379,18.7039347 C6.43334049,18.6503234 6.70680129,18.622935 6.97149731,18.6211868 C7.98061439,20.8408113 10.1992696,22.2941438 12.6826208,22.2941438 L31.4865564,22.2941438 C33.9704919,22.2941438 36.1885628,20.8402286 37.1976799,18.6200214 L37.802449,18.6200214 C37.9520344,18.6200214 38.0998668,18.6293451 38.245362,18.6450788 C38.2471149,18.6450788 38.2482836,18.6444961 38.2500365,18.6450788 C39.1218389,18.733654 39.9498174,19.0792138 40.6667755,19.6607799 C42.1842492,20.8938399 42.8947798,23.1157953 42.4758238,25.322017 L41.7576971,29.1039447 C41.6092803,29.8836396 40.9238754,30.4500546 40.1286187,30.4500546 L30.6246874,30.4500546 L30.6246874,28.148265 C30.6246874,27.6657633 30.2320258,27.2741677 29.7482105,27.2741677 L15.0549517,27.2741677 C14.5711364,27.2741677 14.1784748,27.6657633 14.1784748,28.148265 L14.1784748,30.4500546 L4.6745435,30.4500546 C3.87870247,30.4500546 3.19388185,29.8836396 3.04546509,29.1039447 L2.32675403,25.322017 C1.90838238,23.1157953 2.61832868,20.8938399 4.13638668,19.6607799 Z M35.1934694,18.6200214 C34.3631536,19.8064628 32.9911751,20.5459491 31.4865564,20.5459491 L12.6826208,20.5459491 C11.1774178,20.5459491 9.80543931,19.8064628 8.97453921,18.6200214 L35.1934694,18.6200214 Z M10.43884,4.37048666 C10.7818346,3.06575071 11.966247,2.15552402 13.3177744,2.15552402 L31.0249452,2.15552402 C32.3764726,2.15552402 33.5608851,3.06575071 33.9032954,4.37048666 L37.1918367,16.8718267 L7.14971429,16.8718267 L10.43884,4.37048666 Z M38.0835059,35.3817118 C38.0683136,35.5373011 37.8468571,35.7109551 37.5511923,35.7109551 L35.2799484,35.7109551 C35.095304,35.7109551 34.9240988,35.6445237 34.8218432,35.5326392 C34.7669173,35.4726179 34.7417916,35.4102656 34.7476348,35.3479133 L35.0415467,32.1982493 L38.3803394,32.1982493 L38.0835059,35.3817118 Z M15.9314286,32.0018688 L28.8717336,32.0018688 L28.8717336,29.0223623 L15.9314286,29.0223623 L15.9314286,32.0018688 Z M9.72188185,35.3479133 C9.72714071,35.4102656 9.70259936,35.4726179 9.64767347,35.5326392 C9.54541783,35.6445237 9.37421267,35.7109551 9.18956821,35.7109551 L6.91832438,35.7109551 C6.62265951,35.7109551 6.40061869,35.5373011 6.38601074,35.3822945 L6.08976155,32.1982493 L9.42796992,32.1982493 L9.72188185,35.3479133 Z M1.32348013,29.4296917 C1.60570569,30.9174053 2.84270677,32.0146889 4.32687433,32.1673645 L4.64065306,35.5448766 C4.7429087,36.6363328 5.72222556,37.4591498 6.91832438,37.4591498 L9.18956821,37.4591498 C9.86912997,37.4591498 10.5077895,37.1858487 10.9436907,36.7103397 C11.3328464,36.2837802 11.5186595,35.7424226 11.4666552,35.185914 L11.1879356,32.1982493 L14.1784748,32.1982493 L14.1784748,32.8759661 C14.1784748,33.3584678 14.5711364,33.7500634 15.0549517,33.7500634 L29.7482105,33.7500634 C30.2320258,33.7500634 30.6246874,33.3584678 30.6246874,32.8759661 L30.6246874,32.1982493 L33.2809968,32.1982493 L33.0022771,35.185914 C32.9508571,35.7424226 33.1366702,36.2837802 33.5264103,36.7103397 C33.9611429,37.1858487 34.6003867,37.4591498 35.2799484,37.4591498 L37.5511923,37.4591498 C38.7472911,37.4591498 39.7260236,36.6363328 39.8282793,35.5442939 L40.140305,32.1970838 C41.7717207,32.1912565 43.1752524,31.0298725 43.4796821,29.4296917 L44.1983931,25.6471812 C44.7353813,22.8203504 43.7841117,19.9375774 41.7734737,18.3053463 C40.9542599,17.6398669 40.0240258,17.2022355 39.0388657,17.0011931 L35.5995704,3.92644521 C35.0538174,1.85425181 33.172898,0.407329356 31.0249452,0.407329356 L13.3177744,0.407329356 C11.1698217,0.407329356 9.28890226,1.85425181 8.7431493,3.92644521 L5.27171643,17.1224013 C4.46886359,17.3572421 3.71100322,17.7517513 3.02968851,18.3053463 C1.01905048,19.9375774 0.0677808808,22.8203504 0.604769066,25.6471812 L1.32348013,29.4296917 Z" id="Fill-211" fill="#2DBD9B" mask="url(#mask-2)"></path>
                    </g>
                    <g id="Group-204" transform="translate(9.142857, 2.612245)">
                        <mask id="mask-4" fill="white">
                            <use xlink:href="#path-3"></use>
                        </mask>
                        <g id="Clip-203"></g>
                        <path d="M4.72129193,2.34805195 L22.6399006,2.34805195 L24.946882,11.1002597 L23.3297888,11.1002597 C22.9040497,8.6774026 20.7813168,6.82805195 18.2280745,6.82805195 C15.6748323,6.82805195 13.5520994,8.6774026 13.1263602,11.1002597 L2.41550311,11.1002597 L4.72129193,2.34805195 Z M19.1224845,11.1002597 L19.1224845,8.74033395 C20.2750807,9.05558442 21.1891677,9.95146568 21.504,11.1002597 L19.1224845,11.1002597 Z M17.3336646,11.1002597 L14.9515528,11.1002597 C15.2669814,9.95146568 16.1810683,9.05558442 17.3336646,8.74033395 L17.3336646,11.1002597 Z M1.25575155,12.8813358 L26.1060373,12.8813358 C26.3833043,12.8813358 26.6450683,12.7530983 26.8144099,12.5346197 C26.9837516,12.316141 27.0421863,12.0317625 26.9712298,11.7646011 L24.3518012,1.82441558 C24.1580124,1.08408163 23.4854161,0.566975881 22.7156273,0.566975881 L4.64616149,0.566975881 C3.87756522,0.566975881 3.20437267,1.08408163 3.00998758,1.8232282 L0.390559006,11.7646011 C0.320198758,12.0317625 0.37863354,12.316141 0.547975155,12.5346197 C0.71731677,12.7530983 0.979080745,12.8813358 1.25575155,12.8813358 Z" id="Fill-202" fill="#2DBD9B" mask="url(#mask-4)"></path>
                    </g>
                    <g id="Group-210" transform="translate(35.265306, 20.897959)">
                        <mask id="mask-6" fill="white">
                            <use xlink:href="#path-5"></use>
                        </mask>
                        <g id="Clip-209"></g>
                        <path d="M3.41746939,2.3275102 C4.00457143,2.3275102 4.48130612,2.8042449 4.48130612,3.39134694 C4.48130612,3.97779592 4.00457143,4.45518367 3.41746939,4.45518367 C2.83102041,4.45518367 2.35428571,3.97779592 2.35428571,3.39134694 C2.35428571,2.8042449 2.83102041,2.3275102 3.41746939,2.3275102 Z M3.41746939,6.41436735 C5.08473469,6.41436735 6.4404898,5.05861224 6.4404898,3.39134694 C6.4404898,1.72408163 5.08473469,0.368326531 3.41746939,0.368326531 C1.75085714,0.368326531 0.395102041,1.72408163 0.395102041,3.39134694 C0.395102041,5.05861224 1.75085714,6.41436735 3.41746939,6.41436735 Z" id="Fill-208" fill="#2DBD9B" mask="url(#mask-6)"></path>
                    </g>
                    <g id="Group-207" transform="translate(2.612245, 20.897959)">
                        <mask id="mask-8" fill="white">
                            <use xlink:href="#path-7"></use>
                        </mask>
                        <g id="Clip-206"></g>
                        <path d="M3.23027829,2.3275102 C3.76400742,2.3275102 4.1974026,2.8042449 4.1974026,3.39134694 C4.1974026,3.97779592 3.76400742,4.45518367 3.23027829,4.45518367 C2.69714286,4.45518367 2.26374768,3.97779592 2.26374768,3.39134694 C2.26374768,2.8042449 2.69714286,2.3275102 3.23027829,2.3275102 Z M3.23027829,6.41436735 C4.74597403,6.41436735 5.97847866,5.05861224 5.97847866,3.39134694 C5.97847866,1.72408163 4.74597403,0.368326531 3.23027829,0.368326531 C1.71517625,0.368326531 0.482671614,1.72408163 0.482671614,3.39134694 C0.482671614,5.05861224 1.71517625,6.41436735 3.23027829,6.41436735 Z" id="Fill-205" fill="#2DBD9B" mask="url(#mask-8)"></path>
                    </g>
                </g>
            </g>
        </g>
    </g>
</svg>