<svg xmlns="http://www.w3.org/2000/svg" xmlns:xlink="http://www.w3.org/1999/xlink" width="36" height="34"><defs><path id="A" d="M0 .14h19.89v20.683H0z"/><path id="B" d="M0 0h18v20H0z"/><path id="C" d="M0 0h18v13H0z"/></defs><g fill="none"><g transform="translate(0 13)"><mask id="D" fill="#fff"><use xlink:href="#A"/></mask><path d="M17.593 10.5c.2-4.27-3.443-7.927-7.422-8.04-3.955-.11-7.875 3.204-7.9 7.912-.033 4.444 3.45 8.136 7.67 8.092 5.1-.053 7.886-4.56 7.662-7.965M9.988.147c5.146-.19 10.044 4.54 9.9 10.55-.137 5.7-4.6 10.284-10.255 10.123-5.436-.155-9.818-4.796-9.627-10.8C.19 4.25 4.965-.035 9.988.147" mask="url(#D)" fill="#DC4250"/></g><g transform="translate(18 6)"><mask id="E" fill="#fff"><use xlink:href="#B"/></mask><path d="M6.18 3.617L1.44 11.204.05 9.37c-.102-.155-.035-.502.08-.69L5.02.8c.7-1.104 1.673-1.06 2.387.1l5.62 9.24 4.634 7.63c.752 1.245.22 2.2-1.265 2.218l-13.11.005c-.11 0-.222-.036-.416-.07.078-.668.084-1.327.266-1.935.062-.205.57-.4.878-.403l9.238-.02 1.347-.058-8.42-13.89" mask="url(#E)" fill="#DC4250"/></g><g transform="translate(4)"><mask id="F" fill="#fff"><use xlink:href="#C"/></mask><path d="M15.645 9.535l.016-6.037c.02-.802-.175-1.094-1.004-1.084L3.28 2.417c-.737-.007-.94.217-.928.97l.032 7.74c.013.78-.15 1.246-.963 1.376-.45.07-.874.3-1.417.497L.001 1.65C.003.344.325.003 1.55.002h14.867c1.216.001 1.568.376 1.577 1.646.028 4.176.028 4.176-2.158 7.718-.014.022-.04.036-.19.17" mask="url(#F)" fill="#DC4250"/></g></g></svg>