<svg xmlns="http://www.w3.org/2000/svg" viewBox="0 0 45 47"><style><![CDATA[.A{fill:#2DBD9B}]]></style><path class="A" d="M24.3 43.8h-.4L9.1 43l.1-1.6 14.8.8c1.2.1 2.3-.2 3.3-.9l11.6-7.4c.3-.2.4-.6.2-.9l-.5-.8c-.2-.3-.6-.4-.9-.3l-9.3 3.7-.6-1.5 9.3-3.7c1.1-.4 2.3 0 2.9.9l.5.8c.7 1.1.4 2.5-.7 3.1l-11.6 7.4c-1.2.8-2.5 1.2-3.9 1.2zm.4-6h-.1l-7.4-.4.1-1.6 7.4.4c.2 0 .4-.1.4-.3l.1-1.7c0-.1 0-.1-.1-.2s-.2-.1-.3-.1l-5.7-.3-.2-.3c-1-1.1-2.6-1.6-4.5-1.5-2.7.2-5.3 1.6-6.7 3.6l-.5.7-1.3-.9.5-.7c1.7-2.4 4.8-4.1 8-4.2 2.3-.1 4.2.5 5.6 1.8l5.1.3c.5 0 1.1.3 1.4.7s.5.9.5 1.4l-.3 1.5c0 1-.9 1.8-2 1.8z"/><path class="A" d="M2.1 46.9l-2-12.8 6.8-1 2 12.8-6.8 1zm-.2-11.4l1.5 9.6 3.6-.5L5.5 35l-3.6.5zm.3-11.3h42.6v1.6H2.2z"/><path d="M40.8 28.8H6.5l-2.6-4 1.3-.9 2.2 3.3H40l.8-1.2 1.3.8zm-32-4H7.2v-3.5c0-8.9 7.3-16.1 16.3-16.1s16.3 7.2 16.3 16.1v.8h-1.6v-.8c0-8-6.6-14.5-14.7-14.5S8.8 13.3 8.8 21.3v3.5zm17-21h-1.6V3c0-.7-.5-1.2-1.2-1.2s-1.2.5-1.2 1.2v.8h-1.6V3c0-1.6 1.3-2.8 2.8-2.8s2.8 1.3 2.8 2.8v.8zM13.4 17.1l-1.5-.7.4-.7c1.2-2.4 3.1-4.3 5.4-5.4l.7-.3.7 1.5-.7.3c-2 .9-3.6 2.6-4.6 4.6l-.4.7z" class="A"/></svg>