<svg xmlns="http://www.w3.org/2000/svg" viewBox="0 0 55 32"><style><![CDATA[.A{fill:#32AEDC}]]></style><path class="A" d="M11.5 31.8C5.3 31.8.2 26.7.2 20.5S5.3 9.2 11.5 9.2s11.3 5.1 11.3 11.3-5.1 11.3-11.3 11.3zm0-21c-5.3 0-9.7 4.3-9.7 9.7s4.3 9.7 9.7 9.7c5.3 0 9.7-4.3 9.7-9.7s-4.4-9.7-9.7-9.7zm32 21c-6.2 0-11.3-5.1-11.3-11.3S37.3 9.2 43.5 9.2s11.3 5.1 11.3 11.3-5.1 11.3-11.3 11.3zm0-21c-5.3 0-9.7 4.3-9.7 9.7s4.3 9.7 9.7 9.7 9.7-4.3 9.7-9.7-4.4-9.7-9.7-9.7z"/><path d="M26.8 20.8H10.4l10.5-14V1.2h1.6v6.1l-8.9 11.9h13.2z" class="A"/><path class="A" d="M28 23.8c-1.6 0-2.8-1.3-2.8-2.8s1.3-2.8 2.8-2.8c1.6 0 2.8 1.3 2.8 2.8s-1.2 2.8-2.8 2.8zm0-4c-.7 0-1.2.5-1.2 1.2s.5 1.2 1.2 1.2 1.2-.5 1.2-1.2-.5-1.2-1.2-1.2zm15.8-15h-1.6V3.3a1.54 1.54 0 0 0-1.5-1.5h-3.8v2.7h-1.6V.1h5.5C42.6.1 44 1.5 44 3.2v1.6zM29.88 16.16l6.96-9.28 1.28.96-6.96 9.28zM18.922 2.798l.226-1.584 7.028 1.004-.226 1.584z"/><path d="M21.28 10.346l1.462-.65 3.98 8.955-1.462.65zM43.7 21.1L36.6 7.8H21.2V6.2h16.4l7.5 14.1z" class="A"/></svg>