<svg xmlns="http://www.w3.org/2000/svg" width="167" height="46"><defs><clipPath id="A"><path d="M0 .2h26.853V28H0z" fill="none"/></clipPath><clipPath id="B"><path d="M0,0H23V27H0Z" fill="none"/></clipPath><clipPath id="C"><path d="M0,0H24V17H0Z" fill="none"/></clipPath></defs><text letter-spacing="0.001em" fill="#fff" font-size="29.09" font-family="SegoeUI, Segoe UI"><tspan x="60" y="33">Tradelist</tspan></text><g clip-path="url(#A)" transform="translate(0 18)"><path d="M13.4 28c-.13 0-.26 0-.39-.006a13.07 13.07 0 0 1-9.2-4.15C1.208 21.04-.16 17.31.008 13.5.112 9.91 1.594 6.505 4.145 4 5.332 2.8 6.73 1.862 8.267 1.197A12.11 12.11 0 0 1 13.069.19c.138 0 .278 0 .415.007s.27-.007.4-.007a12.68 12.68 0 0 1 8.938 3.955 14.14 14.14 0 0 1 4.024 10.239A13.63 13.63 0 0 1 13.4 28zm.073-24.68c-5.8.098-10.446 4.84-10.422 10.643a11.12 11.12 0 0 0 3.188 7.87 9.93 9.93 0 0 0 7.069 3.011h.1c2.86.016 5.593-1.175 7.528-3.28a10.39 10.39 0 0 0 2.816-7.429 10.16 10.16 0 0 0-2.8-7.405c-1.856-2.05-4.454-3.273-7.216-3.4h-.26z" fill="#f7bc31"/></g><g clip-path="url(#B)" transform="translate(25 9)"><path d="M7.9 4.882L1.84 15.126.064 12.65a1.128 1.128 0 0 1 .1-.93l6.25-10.64c.895-1.5 2.137-1.432 3.05.134l7.182 12.475q2.96 5.15 5.92 10.3c.96 1.68.282 2.984-1.616 2.994L4.2 26.99a3.663 3.663 0 0 1-.532-.093 16.271 16.271 0 0 1 .34-2.613c.08-.277.73-.54 1.122-.544l11.8-.027 1.72-.078L7.9 4.882" fill="#dc4250"/></g><g clip-path="url(#C)" transform="translate(7)"><path d="M20.86 12.47l.02-7.894c.027-1.05-.234-1.43-1.338-1.417q-7.585.085-15.17 0c-.983-.01-1.254.284-1.237 1.27l.043 10.12c.017 1.02-.2 1.63-1.283 1.8A11.656 11.656 0 0 0 0 17v-2.358Q0 8.4 0 2.158C0 .45.434 0 2.067 0q9.91 0 19.823 0c1.62 0 2.09.492 2.1 2.152.038 5.46.038 5.46-2.878 10.093a2.532 2.532 0 0 1-.255.221" fill="#32aedc"/></g></svg>