<svg xmlns="http://www.w3.org/2000/svg" xmlns:xlink="http://www.w3.org/1999/xlink" width="48" height="46" viewBox="0 0 48 46"><defs><path id="vr3pa" d="M82 134.19h26.853V162H82z"/><path id="vr3pe" d="M95.484 134.197c6.948-.254 13.56 6.106 13.365 14.186-.186 7.677-6.212 13.828-13.845 13.612-7.339-.208-13.255-6.449-12.996-14.509.25-7.77 6.694-13.533 13.476-13.289m10.267 13.936c.27-5.74-4.649-10.659-10.02-10.81-5.34-.149-10.632 4.309-10.68 10.639-.044 5.976 4.66 10.94 10.356 10.88 6.887-.071 10.646-6.132 10.344-10.71"/><path id="vr3pb" d="M107 125h23v27h-23z"/><path id="vr3pg" d="M114.895 129.882l-6.054 10.244c-.662-.904-1.269-1.658-1.777-2.476-.13-.21-.045-.678.101-.93a811.455 811.455 0 0 1 6.248-10.64c.895-1.49 2.137-1.432 3.05.134 2.415 4.146 4.79 8.315 7.182 12.475 1.974 3.434 3.955 6.863 5.921 10.301.962 1.68.282 2.984-1.616 2.994-5.584.03-11.167.01-16.75.006-.143 0-.285-.048-.533-.093.1-.902.107-1.79.34-2.612.08-.277.73-.54 1.122-.544 3.935-.04 7.87-.022 11.804-.027.441-.001.882-.039 1.721-.078l-10.759-18.754"/><path id="vr3pc" d="M89 116h24v17H89z"/><path id="vr3pi" d="M109.86 128.469c0-2.74-.044-5.318.022-7.894.026-1.049-.234-1.43-1.339-1.418-5.056.057-10.114.051-15.171.003-.983-.009-1.254.285-1.237 1.27.057 3.373-.014 6.748.043 10.121.017 1.02-.199 1.63-1.284 1.8-.598.093-1.165.392-1.89.649v-2.358c0-4.161-.007-8.323-.002-12.484.001-1.708.432-2.154 2.065-2.155 6.608-.004 13.215-.004 19.823 0 1.621.001 2.09.492 2.103 2.152.038 5.461.038 5.461-2.878 10.093-.019.03-.054.048-.255.221"/><clipPath id="vr3pd"><use xlink:href="#vr3pa"/></clipPath><clipPath id="vr3pf"><use xlink:href="#vr3pb"/></clipPath><clipPath id="vr3ph"><use xlink:href="#vr3pc"/></clipPath></defs><g><g transform="translate(-82 -116)"><g><g/><g clip-path="url(#vr3pd)"><use fill="#f7bc31" xlink:href="#vr3pe"/></g></g><g><g/><g clip-path="url(#vr3pf)"><use fill="#dc4250" xlink:href="#vr3pg"/></g></g><g><g/><g clip-path="url(#vr3ph)"><use fill="#32aedc" xlink:href="#vr3pi"/></g></g></g></g></svg>