<svg id="main-logo" xmlns="http://www.w3.org/2000/svg" xmlns:xlink="http://www.w3.org/1999/xlink" width="167" height="46" viewBox="0 0 167 46">
  <defs>
    <clipPath id="clip-path">
      <path id="Clip_2" data-name="Clip 2" d="M0,0H26.853V27.81H0Z" transform="translate(0 0.19)" fill="none"/>
    </clipPath>
    <clipPath id="clip-path-2">
      <path id="Clip_5" data-name="Clip 5" d="M0,0H23V27H0Z" fill="none"/>
    </clipPath>
    <clipPath id="clip-path-3">
      <path id="Clip_8" data-name="Clip 8" d="M0,0H24V17H0Z" fill="none"/>
    </clipPath>
  </defs>
  <g id="Group_2" data-name="Group 2" transform="translate(60 2)">
    <g id="EPS">
      <text id="Tradelist" transform="translate(0 31)" fill="#393c40" font-size="29.09" font-family="SegoeUI, Segoe UI" letter-spacing="0.001em"><tspan x="0" y="0">Tradelist</tspan></text>
    </g>
  </g>
  <g id="Group_14" data-name="Group 14">
    <g id="Group_3" data-name="Group 3" transform="translate(0 18)">
      <path id="Clip_2-2" data-name="Clip 2" d="M0,0H26.853V27.81H0Z" transform="translate(0 0.19)" fill="none"/>
      <g id="Group_3-2" data-name="Group 3" clip-path="url(#clip-path)">
        <path id="Fill_1" data-name="Fill 1" d="M13.4,27.81c-.13,0-.261,0-.391-.006a13.067,13.067,0,0,1-9.2-4.15A14.294,14.294,0,0,1,.008,13.3a13.906,13.906,0,0,1,4.137-9.5A13.392,13.392,0,0,1,8.267,1.007,12.1,12.1,0,0,1,13.069,0c.138,0,.278,0,.415.007s.269-.007.4-.007a12.677,12.677,0,0,1,8.938,3.955,14.142,14.142,0,0,1,4.024,10.239A13.627,13.627,0,0,1,13.4,27.81Zm.073-24.681h0A10.6,10.6,0,0,0,3.051,13.772a11.119,11.119,0,0,0,3.188,7.87,9.929,9.929,0,0,0,7.069,3.011h.1a10.146,10.146,0,0,0,7.528-3.281,10.389,10.389,0,0,0,2.816-7.429,10.159,10.159,0,0,0-2.8-7.405,10.378,10.378,0,0,0-7.216-3.4c-.086,0-.174,0-.261,0Z" transform="translate(0 0.19)" fill="#f7bc31"/>
      </g>
    </g>
    <g id="Group_6" data-name="Group 6" transform="translate(25 9)">
      <path id="Clip_5-2" data-name="Clip 5" d="M0,0H23V27H0Z" fill="none"/>
      <g id="Group_6-2" data-name="Group 6" clip-path="url(#clip-path-2)">
        <path id="Fill_4" data-name="Fill 4" d="M7.9,4.882,1.841,15.126c-.662-.9-1.269-1.658-1.777-2.476a1.128,1.128,0,0,1,.1-.93C2.228,8.161,4.3,4.606,6.413,1.08c.895-1.49,2.137-1.432,3.05.134,2.415,4.146,4.791,8.315,7.182,12.475q2.961,5.15,5.921,10.3c.961,1.681.282,2.984-1.616,2.994-5.583.029-11.167.011-16.751.006a3.663,3.663,0,0,1-.532-.093,16.271,16.271,0,0,1,.34-2.613c.079-.277.73-.54,1.122-.544,3.934-.04,7.869-.022,11.8-.027.441,0,.882-.039,1.721-.078L7.9,4.882" fill="#dc4250"/>
      </g>
    </g>
    <g id="Group_9" data-name="Group 9" transform="translate(7)">
      <path id="Clip_8-2" data-name="Clip 8" d="M0,0H24V17H0Z" fill="none"/>
      <g id="Group_9-2" data-name="Group 9" clip-path="url(#clip-path-3)">
        <path id="Fill_7" data-name="Fill 7" d="M20.86,12.469c0-2.739-.044-5.318.021-7.894.027-1.049-.234-1.43-1.338-1.417q-7.585.085-15.171,0c-.983-.009-1.254.284-1.237,1.27.057,3.373-.014,6.748.043,10.121.017,1.02-.2,1.63-1.283,1.8A11.656,11.656,0,0,0,0,17c0-.879,0-1.619,0-2.358Q0,8.4,0,2.158C0,.45.434,0,2.067,0Q11.978,0,21.89,0c1.621,0,2.091.492,2.1,2.152.038,5.461.038,5.461-2.878,10.093a2.532,2.532,0,0,1-.255.221" fill="#32aedc"/>
      </g>
    </g>
  </g>
</svg>
