<svg xmlns="http://www.w3.org/2000/svg" xmlns:xlink="http://www.w3.org/1999/xlink" width="83" height="64" viewBox="0 0 83 64"><defs><path id="ppgga" d="M685.715 1321.661a17.69 17.69 0 0 1 5.285 12.624c0 9.768-7.913 17.715-17.638 17.715-8.886 0-16.24-6.643-17.445-15.24h-12.826c-1.204 8.597-8.557 15.24-17.445 15.24-15.616 0-23.56-19.058-12.485-30.215l5.904-23.911c3.225-12.12 20.032-13.205 25.366-2.573h10.286a13.081 13.081 0 0 1 11.752-7.273c5.894 0 11.108 3.984 12.68 9.688l6.598 23.936zm-34.285-21.36v32.017h4.19c.238-1.71.708-3.344 1.388-4.864v-17.083h4.963v10.537c4.719-3.9 11.265-5.243 17.448-2.89l-5.185-18.948c-.99-3.619-4.275-6.147-7.987-6.147-3.322 0-6.335 1.817-7.901 5.797-.785 1.987-2.424 1.581-6.916 1.581zm-32.814 17.807c6.194-2.446 12.992-1.22 17.916 2.894v-15.118h4.994v21.592h-.105a17.926 17.926 0 0 1 1.386 4.842h3.788V1300.3H642.6c-1.836 0-2.324-1.578-2.845-2.657-1.402-2.902-4.067-4.72-8.405-4.72-3.77 0-7.083 2.557-8.057 6.218zm18.327 15.672c0-6.785-5.41-12.303-12.058-12.303-6.65 0-12.06 5.518-12.06 12.303 0 6.784 5.41 12.302 12.06 12.302 6.649 0 12.058-5.518 12.058-12.302zm49.221 0c0-6.785-5.409-12.303-12.059-12.303-6.65 0-12.058 5.518-12.058 12.303 0 6.784 5.409 12.302 12.058 12.302 6.65 0 12.06-5.518 12.06-12.302zm-12.536 5.22v5.113c-5.32 0-9.651-4.413-9.651-9.836h5.015c0 2.604 2.08 4.724 4.636 4.724zm-48.256 0l-.404 5.113c-4.172-.492-7.317-4.72-7.317-9.836h4.211c0 2.456 1.51 4.488 3.51 4.723z"/></defs><g><g transform="translate(-608 -1288)"><use fill="#f7bc31" xlink:href="#ppgga"/></g></g></svg>