<svg xmlns="http://www.w3.org/2000/svg" xmlns:xlink="http://www.w3.org/1999/xlink" width="83" height="70" viewBox="0 0 83 70"><defs><path id="46cha" d="M323.568 1264.491a2.686 2.686 0 0 1-2.682 2.682h-72.772a2.686 2.686 0 0 1-2.682-2.682v-49.377a2.686 2.686 0 0 1 2.682-2.683h72.772a2.686 2.686 0 0 1 2.682 2.683zm-41.41 5.114h4.683l-.291 1.166a2.11 2.11 0 0 1-2.05 1.6 2.11 2.11 0 0 1-2.05-1.6zm-7.976 7.974l.996-7.974h4.474l.44 1.758a4.539 4.539 0 0 0 4.408 3.446 4.539 4.539 0 0 0 4.409-3.446l.439-1.758h4.475l.995 7.974zM320.886 1210h-72.772a5.12 5.12 0 0 0-5.114 5.114v49.377a5.12 5.12 0 0 0 5.114 5.114h24.613l-.996 7.964h-4.124a1.216 1.216 0 1 0 0 2.431h33.786a1.216 1.216 0 1 0 0-2.431h-4.124l-.996-7.964h24.613a5.12 5.12 0 0 0 5.114-5.114v-49.377a5.12 5.12 0 0 0-5.114-5.114z"/><path id="46chb" d="M311.78 1216h-62.56c-.674 0-1.22.542-1.22 1.21v46.58c0 .668.546 1.21 1.22 1.21h2.606c.674 0 1.22-.542 1.22-1.21 0-.67-.546-1.211-1.22-1.211h-1.387v-44.158h61.342c.673 0 1.219-.542 1.219-1.21 0-.67-.546-1.211-1.22-1.211z"/><path id="46chc" d="M319.78 1216h-2.606c-.674 0-1.22.542-1.22 1.21 0 .67.546 1.211 1.22 1.211h1.387v44.158H257.22c-.673 0-1.219.542-1.219 1.21 0 .67.546 1.211 1.22 1.211h62.56c.674 0 1.22-.542 1.22-1.21v-46.58c0-.668-.546-1.21-1.22-1.21z"/><path id="46chd" d="M298.51 1234.828h-3.933l.39-4.38 4.363.202zm-.935 4.752a2.679 2.679 0 0 1-2.303 2.162l-1.324.159.41-4.614h3.668zm-5.425-4.752h-4.358v-4.712l4.758.22zm-.655 7.366l-3.703.443v-5.35h4.14zm-6.12-7.366h-4.192l-.82-5.055 5.012.232zm0 8.09l-2.825.337-.969-5.968h3.794zm-7.084.847a1.37 1.37 0 0 1-1.483-1.004l-1.54-5.474h3.863l1.016 6.256zm-3.713-8.937l-1.514-5.393 4.831.223.838 5.17zm2.964 16.916c.758 0 1.374.627 1.374 1.398 0 .772-.616 1.4-1.374 1.4a1.388 1.388 0 0 1-1.375-1.4c0-.771.617-1.398 1.375-1.398zm18.083 0c.758 0 1.375.627 1.375 1.398 0 .772-.617 1.4-1.375 1.4a1.388 1.388 0 0 1-1.375-1.4c0-.771.617-1.398 1.375-1.398zm6.118-23.015a1.202 1.202 0 0 0-.897-.47l-28.416-1.315a1.12 1.12 0 0 0-.066-.001 2.545 2.545 0 0 0-1.005-1.376l-3.48-2.36a1.196 1.196 0 0 0-1.676.34c-.37.566-.22 1.33.335 1.706l3.48 2.36a.085.085 0 0 1 .034.047l4.433 15.785c.138.492.365.935.658 1.317l-1.622 3.3a2.566 2.566 0 0 0 .73 3.169 3.885 3.885 0 0 0-.5 1.911c0 2.127 1.7 3.858 3.791 3.858 2.09 0 3.792-1.73 3.792-3.858 0-.493-.093-.965-.26-1.399h11.018c-.166.434-.259.906-.259 1.399 0 2.127 1.701 3.858 3.792 3.858 2.09 0 3.792-1.73 3.792-3.858 0-.617-.144-1.2-.398-1.718.244-.225.398-.549.398-.91 0-.68-.541-1.23-1.209-1.23h-22.452c-.017 0-.046 0-.07-.04-.025-.04-.012-.066-.004-.082l1.494-3.04a3.732 3.732 0 0 0 1.397.095l16.981-2.033c2.194-.262 3.958-1.919 4.391-4.122l2.032-10.334a1.246 1.246 0 0 0-.234-1z"/></defs><g><g transform="translate(-243 -1210)"><g><use fill="#f7bc31" xlink:href="#46cha"/></g><g><use fill="#f7bc31" xlink:href="#46chb"/></g><g><use fill="#f7bc31" xlink:href="#46chc"/></g><g><use fill="#f7bc31" xlink:href="#46chd"/></g></g></g></svg>