<svg xmlns="http://www.w3.org/2000/svg" xmlns:xlink="http://www.w3.org/1999/xlink" width="77" height="70" viewBox="0 0 77 70"><defs><path id="loyva" d="M126.275 1285.26v60.48h28.814v4.26H122v-69h46.06l12.94 13.637v14.445h-4.275v-9.975h-10.689a2.134 2.134 0 0 1-2.137-2.13v-11.717zM168 1295h7l-7-8zm-20 1.951c-8.468 8.003-8.193 8.049-9.431 8.049-1.216 0-1.24-.308-6.569-5.343l3.123-2.952 3.446 3.257 6.308-5.962zm0 16c-8.468 8.003-8.193 8.049-9.431 8.049-1.216 0-1.24-.308-6.569-5.343l3.123-2.952 3.446 3.257 6.308-5.962zm-9.431 20.011l6.308-5.962 3.123 2.951c-8.468 8.003-8.193 8.049-9.431 8.049-1.216 0-1.24-.308-6.569-5.343l3.123-2.952z"/><path id="loyvb" d="M199 1315.463v10.028c0 1.36-1.07 2.463-2.389 2.463h-.683v20.583c0 1.36-1.069 2.463-2.389 2.463h-32.078c-1.32 0-2.39-1.102-2.39-2.463v-20.583h-.682c-1.32 0-2.389-1.102-2.389-2.463v-10.028c0-1.36 1.07-2.463 2.389-2.463h38.222c1.32 0 2.389 1.102 2.389 2.463zM160 1324h34v-5h-34zm3 22h11v-18h-11zm17 0h11v-18h-11z"/></defs><g><g transform="translate(-122 -1281)"><g><use fill="#2dbd9b" xlink:href="#loyva"/></g><g><use fill="#2dbd9b" xlink:href="#loyvb"/></g></g></g></svg>