<svg xmlns="http://www.w3.org/2000/svg" xmlns:xlink="http://www.w3.org/1999/xlink" width="86" height="70" viewBox="0 0 86 70"><defs><path id="oyd3a" d="M1309.123 1273.086c0 2.233-1.821 4.047-4.06 4.047h-72.136c-2.239 0-4.06-1.816-4.06-4.047v-41.947c0-2.204 1.8-3.998 4.011-3.998h14.157l5.732-14.284h32.456l5.732 14.284h14.157c2.211 0 4.011 1.794 4.011 3.998zM1237.467 1220h2.856v4.286h-2.856zm67.654 4.286h-12.217L1287.17 1210h-36.34l-5.734 14.286h-1.896v-7.143h-8.6v7.143h-1.721c-3.794 0-6.879 3.074-6.879 6.855v41.955c0 3.807 3.107 6.904 6.927 6.904h72.146c3.82 0 6.927-3.097 6.927-6.904v-41.955c0-3.781-3.085-6.855-6.879-6.855z"/><path id="oyd3b" d="M1269 1272.177c-12.743 0-23.111-10.171-23.111-22.672 0-12.5 10.368-22.672 23.111-22.672s23.111 10.171 23.111 22.672c0 12.5-10.368 22.672-23.111 22.672zm0-48.177c-14.336 0-26 11.44-26 25.5s11.664 25.5 26 25.5 26-11.44 26-25.5-11.664-25.5-26-25.5z"/><path id="oyd3c" d="M1269.005 1263.177c-7.814 0-14.172-6.358-14.172-14.172 0-7.814 6.358-14.172 14.172-14.172 7.814 0 14.172 6.358 14.172 14.172 0 7.814-6.358 14.172-14.172 14.172zM1269 1232c-9.374 0-17 7.626-17 17 0 9.374 7.626 17 17 17 9.374 0 17-7.626 17-17 0-9.374-7.626-17-17-17z"/><path id="oyd3d" d="M1300.5 1239.25a2.753 2.753 0 0 1-2.75-2.75 2.753 2.753 0 0 1 2.75-2.75 2.753 2.753 0 0 1 2.75 2.75 2.753 2.753 0 0 1-2.75 2.75zm0-8.25a5.506 5.506 0 0 0-5.5 5.5c0 3.033 2.467 5.5 5.5 5.5s5.5-2.467 5.5-5.5-2.467-5.5-5.5-5.5z"/></defs><g><g transform="translate(-1226 -1210)"><g><use fill="#32aedc" xlink:href="#oyd3a"/></g><g><use fill="#32aedc" xlink:href="#oyd3b"/></g><g><use fill="#32aedc" xlink:href="#oyd3c"/></g><g><use fill="#32aedc" xlink:href="#oyd3d"/></g></g></g></svg>