<svg xmlns="http://www.w3.org/2000/svg" xmlns:xlink="http://www.w3.org/1999/xlink" width="188" height="23" viewBox="0 0 188 23"><defs><path id="fsfza" d="M766.331 1722.514c.257-.401.52-.704.743-1.167-1.091 1.112-1.63 2.497-2 3.275-.438.407-.136-.685-1.063.717-1.4 1.926.686-.032-.159 1.13 0 0-.94.57-.942.57-1.006 1.557-2.128 2.41-3.318 3.418-.238.261-.34.406-.377.495-1.35.972-2.532 2.486-3.716 3.067.222-.215-.746.189-.93.174 0 0-.469.343-.97.646-.395.23-.79.46-.947.553.829-.491.702-.657.78-.908-.644.312-.893.58-1.346.78.26-.165.494-.374.116-.301l-1.074.582c-.542.287-1.122.516-1.122.516.149-.004.426-.068.658-.124-.3.08-.757.257-1.264.39-.514.105-1.064.216-1.515.189.068-.081.355-.212.416-.306.76.085 1.147-.165 1.464-.43-1.618.403-.419.041-1.228.057-1.137.225-1.61.473-1.28.64-.678.043-1.123 0-1.571.005l-1.597.071.284-.26-.629-.007a5.397 5.397 0 0 1-.627-.05s.263-.043.524-.088l.52-.13c-1.165-.203-1.278-.167-1.445-.047-.157.09-.375.235-1.642-.194l.06-.242c-.995-.17-1.464.067-2.106-.473-.976-.24 1.452.972-.735.12-.338-.272-1.097-.728-1.651-1.097-.664-.229.23.428.71.67-1.523-.723-1.863-1.198-2.174-1.604-.329-.406-.6-.776-1.94-1.522.758.747-1.011-.117 1.054 1.31-.534-.282-.973-.69-1.411-1.096-.423-.425-.853-.837-1.427-1.114l.832.249c-.343-.28-.814-.491-1.015-.627l.233-.122c-1.444-.655-1.956-2.018-2.99-2.239.752.128-.817-.778-1.1-1.34 1.057.697 2.53 2.512 2.929 2.321-.34-.48-.844-.696-1.164-1.163.323.225.804.533.967.576-1.217-1.453-2.275-1.907-3.15-2.674 0 0 .36.358.732.705l.738.698c-.405.166-.684-.609-1.312-.803a5.251 5.251 0 0 0-.9-1.064c-.155-.153-.307-.3-.454-.444-.145-.152-.14-.155-.2-.273.059.07.09.052.15.117-.327-.371-.494-.841-.73-1.376l-.174-.4-.089-.199c-.027-.033-.047.002-.071.002-.09.039-.182.12-.267.277a5.845 5.845 0 0 0-.502 1.172c-.11.37-.102.568.058.447-.125.493.808-1.844.677-.43-.287-.12-.44.333-.626.835-.407.746-.788 1.75-1.834 2.747.584-1.1-.718.36-.177-.596-.776 1.068-.735 1.164-.973 1.747.006.006-.426.16-.426.16-.467.764-.484.915-.592 1.118a2.787 2.787 0 0 1-.316.446c-.21.199-.533.487-1.071.948.67-.667-1.054.42-.55-.109-.675.343-1.3.762-1.798 1.051l.089-.055c-.673.224-1.156.384-1.54.448-.391.034-.675.04-.95.049-.548.04-1.048-.014-2.323-.011 0 0 .206.143.233.152-1.69-.046-3.51-.611-5.176-1.365-1.681-.745-3.238-1.668-4.663-2.396l.865.592c-.423-.263-1.948-.909-2.663-1.5.178.088.498.21.651.314.04-.122-.2-.49-.85-.877l-.349.037-.196-.278c-1.01-.537.165.397-.842-.121-.166-.393-1.259-.975-2.407-1.333-1.162-.441-2.28-.36-2.755-.576-.307.248.162.194.624.2.456-.052.932.114.533.215-.302-.128-.42-.136-1.067-.162l.242.236c-1.398.04-2.233.705-2.998 1.378-.704.776-1.323 1.648-1.885 3.056l-.003-.134c-.493.967-.69 1.524-.611 2.068-.176.182 0-.593-.22-.217-.017 2.002-1.466 3.637-1.315 4.907-.454-.26-1.377 2.206-1.564 1.071l-.088.816c-.265-.324.426-2.531.24-3.06l.466-1.23c.114-.306.23-.611.317-.84l.168-.378c-.142.048-.19-.415-.355-.022.183-.624.335-1.176-.085-.406.638-1.46 1.254-2.929 2.038-4.354.746-1.424 1.77-2.846 3.27-3.807 1.535-.985 3.513-1.016 5.089-.576 1.613.422 3.02 1.165 4.307 1.986.38.17.225-.043.12-.186.844.81 1.017.379 1.58.637l1.188 1.2c.638.21.26-.166.346-.222 2.664 1.415 5.124 3.167 7.482 3.29.697.29-.24.333.726.555-.63-.336.088-.253.835-.292.378.022.759-.035.993-.103.175-.043.268-.086.22-.129.49.175 1.248-.038 1.876-.177.638-.256 1.152-.434 1.124-.033.564-.232.705-.484.706-.58-.004-.104-.17-.105-.321-.031.54-.414 1.091-.71 1.488-1.156.4-.443.783-.854 1.071-1.349.28-.261 1.304-1.476 2.136-2.938l.335-.529.172-.273.207-.39.785-1.432a15.8 15.8 0 0 1 .65-1.066c.093-.135.176-.248.249-.334.02-.012.033-.062.055-.036l.067.113.062.113c-.07-.136-.13-.28-.161-.27-.04.014-.064.014-.074-.002-.018-.004.005-.206.091-.229.203.214.592.688.987 1.047l-.718-1.325 1.9 2.332c.41.44.525.587.502.6.303.373-.14.108.36.784.837.977 1.007.904 1.606 1.302l-.103-.17.617.604c.439.467-1.776-1.422-.441.187.075-.025 1.21.564 1.473 1.09-.754-.742-.806-.504-.584-.171l1.066 1.047-.1-.617c3.066 2.872 6.594 5.775 10.94 6.847-.072.166.695.356 1.433.483.732.148 1.438.203 1.22.442l-.17-.06c-1.12-.069.287.463 1.226.374-.943-.147 1.684-.5-.596-.553 0 0 1.742-.237 1.73-.283.44-.507 1.53-.58 2.837-.881 1.298-.28 2.84-.735 3.895-1.555-.144.122-.163.189-.168.224 1.9-1.349 4.467-2.882 4.766-3.404l.331.042c1.216-1.712 1.342-1.896 3.072-3.652.012.05-.113.32.176.05.23-.583.475-1.142 1.524-2.46l.023.103s.392-.53.759-1.08l.742-1.094c.16.115.372-.082.618-.445.195-.29.626-1.042 1.064-1.852.434-.802.93-1.698 1.353-2.352.052-.148.103-.02.153.063l.144.243c.092.162.175.32.25.474.144.31.248.596.291.856.209.106.692.696 1.231 1.401.261.331.575.774.798 1.038l.548.595c-.023.024-.019.088.038.224.475.278.885.874 1.27 1.518.408.62.82 1.261 1.203 1.67.554.482.444.153.338-.174.325.672 1.1 1.302 1.807 1.81l.945.689c.273.179.483.312.558.42.777.659.108.473.22.784 1.262.875.2-.67 1.668.742-.217-.095-.6-.3-.484-.174.308.23.628.715.989 1.191.179.237.366.468.557.66.202.168.414.28.615.321l-.415-.339c.707.191 1.397.72 2.026 1.077.641.297 1.173.523 1.342.294l-.07-.275c.283.117.513.222.706.28l.473.076c.25.034.381.032.513.03.133-.003.265-.007.518.021.125.02.281.04.486.069l.763.001-.028.043c.538-.08.967-.044 1.321-.071.342-.08.614-.183.814-.448l-.369.052c.636-.206.983-.305 1.338-.4.346-.12.673-.308 1.295-.594.123-.113.695-.435.893-.478-.058-.16.564-.655 1.269-1.15.366-.23.716-.515.994-.782.288-.254.525-.46.642-.56-.767.79-.297.54.027.42.273-.67.634-.921 1.35-1.504-.22-.375-.433-.809.669-2.156-.125.245-.373.594-.194.513.18-.083.373-.455.436-.579.18-.083-.133.39.106.329.124-.283.242-.545.378-.79.069-.123.144-.24.222-.357l.404-.57.903-1.245c.16-.23.327-.474.505-.734l.273-.416.144-.224c.024-.025.047-.11.074-.085l.083.083a3.9 3.9 0 0 0-.093-.068c-.024.037-.044.088-.061.123a1.293 1.293 0 0 0-.068.173c-.023.08-.006.102.031.095.038.03.09-.122.155.007.065.116.132.235.18.34.049-.292.661.532 1.104 1.144.444.613.779 1.08.603.442.902 1.183 1.46 1.67 2.2 2.398.687.73 1.558 1.268 2.298 1.868.764.568 1.554.973 2.156 1.394.613.399 1.137.64 1.391.884.257.311 1.23.473 1.802.618l-.145.166c1.691.181 1.273.335 3.241.366-.823.068-.534.245.237.61.002.048 1.384-.256 1.384-.256l.227.34c.552-.053 1.148.04 1.759.056.248-.162.816-.25 1.386-.314.663-.152 1.332-.28 1.496-.405.665.387 1.517-.41 2.028-.117.175-.104.406-.21.66-.314-.328-.112-.48-.29.053-.327a.594.594 0 0 0 .116-.042l.29.158c.492-.24 1-.455 1.338-.583a4.162 4.162 0 0 1-.56.071l.659-.107c.07-.023.135-.047.183-.062a.638.638 0 0 1-.105.05c.337-.044.652-.188 1.044-.467.467-.122.928-.329 1.384-.575.434-.29.858-.63 1.288-.96.891-.617 1.638-1.45 2.662-1.851-.287.15-.655.4-.697.543.342-.28.725-.502 1.048-.79l1.343-1.102c.232-.191.456-.38.673-.56.21-.12.43-.54.592-.192.349.36.666.662.966.897l-.005-.333 1.851 1.695c.418.383.801.754 1.175 1.147l.229-.14c.507.58 1.448 1.448 2.214 2.067.184.144.389.33.493.373.062.04.12.085.175.13l.064.054c.064.058.107.138.289.22.054-.078.065-.08.256-.178.183-.096.374-.152.652-.283.53-.238 1.164-.508 1.561-.752l.298.073c1.111-.471 1.76-.841 2.408-1.167 1.209-.292 2.31-.672 3.37-1.075l1.566-.579.522-.183c.198-.07.404-.018.605-.031l.807.02.019.058 2.158-.073c-.574.16.434-.12 1.073.01.69-.035 1.795.118 2.582.32l1.351.193c-1.516-.076.07.302.123.542l.882-.063c.33.158-.577.102.049.24.595-.061 2.28.23 2.846.096-.074-.07-.27-.161-.514-.25-.074.001-.07-.002-.022-.008l-.056-.025.07.022c.076-.01.196-.027.249-.05 1.055.24.68.077.662-.033 1.08.535 1.78.459 2.555.962-.632-.503 2.84.616 2.194.044.816.539.605.146 1.107.57-1.223-.37-2.545-.28-3.578-.333l.945.416c-.704.265-2.112-.558-2.759-.559.406-.004 1.143.203 1.245.312l-.193-.344c-1.398-.375-2.574-.334-3.606-.354.935.253-1.187.015-.529.343l.756.076c.326.17-.414.133-.85.175-2.335-.603-6.727-.852-7.576-1.047.487.091 1.39.05 1.826.017l-.559-.117c-.28-.047-.56-.091-.56-.091.921.018 1.615.405 2.97.411-.208-.219.805-.402-.199-.772-2.582-.564-2.18.313-5.302.137-.145.027.02-.051.011-.126-.008-.04-.042-.076-.211-.103-.094-.01-.223-.025-.394-.027-.155.049-.401.131-.575.198-1.971.79-3.24 1.78-3.079 2.18.758-.44 2.346-1.224 2.7-.989-.801.36-2.182.934-2.178 1.162-.966-.034 1.495-.662.29-.544-.57.217-.773.419-1.016.575.327-.28-.607-.055-.804-.05-1.838.735-2.908 1.15-4.832 2.091-.128 0-.386-.01-.366-.118-.436.29-.951.575-1.483.704-.502.043-.932.068-.75.266-.655-.347-.91-.604-1.122-.833-.228-.225-.44-.424-.849-.759 1.017 1.413-.21-.27-.578-.145-.798-.734-.148-.388-.44-.796-.153-.1-.536-.323-.624-.277-.27-.653 1.39.42 1.069-.348-.249-.525-1.556-2.372-1.71-2.563-.331-.124-.609.136-.796.505a3.733 3.733 0 0 0-.234.575l-.075.265c.003.105.017.21.048.313-.292-.008-.29-.608-.538-.89a1.86 1.86 0 0 0-.382-.53c-.063-.045-.13-.14-.183-.109l-.146.213c-.187.295-.26.517-.492.642.01-.01.042-.102.1-.218l.126-.24c-.026-.005-.087.038-.163.108l-.315.323c-.327.363-.686.708-.761.833-.101-.066.323-.994-.182-.78-.841.586-1.525 1.332-2.032 1.896-.515.549-.787 1.004-.642 1.118 0 0 .657-.491 1.27-1.017l1.174-1.116c.268.152-1.636 1.63-1.374 1.797-.002 0-2.619 1.512-2.66 1.437.358-.15 1.312-.818.838-.727-1.113.637-.615.265-1.436.533.287-.246.633-.538.969-.89.324-.372.657-.773.968-1.162.64-.751 1.1-1.577 1.322-2.022 0 0-1.02 1.042-1.044 1.011l-.4.047c-1.399 1.22-2.506 2.931-2.878 3.452-1.091.37-.946-.375-.744-.564-1.03.357-1.463.746-1.922 1.135-.472.334-.971.667-2.09.893l.862-.07c-.504.248-2.478.381-2.256.455-.426-.094-.821-.37-.556-.548a8.9 8.9 0 0 1-.843.337l-.963.296c.245-.098.061-.551.178-.638-.729-.006-1.29.513-.947.644-1.466-.36-1.127-.233-2.318-.737-.463-.012-.033.525.309.613-1.085.062-1.682-.204-2.166-.346 1.754.16.664-.99 1.057-1.292l-1.917.339c-.968.087-1.99.12-1.99.12.154-.042.589-.393.586-.454-.218.166-1.354-.064-2.606-.632-.318-.133-.649-.27-.975-.423-.31-.18-.62-.362-.923-.537-.593-.371-1.183-.68-1.582-1.019l.253.185c.418.125-.934-1.04-1.611-1.357.153.006.272.127.523.311-.91-1.059-1.826-.624-2.628-1.87.922.9 1.226.936 1.29.76-.438-.292-1.077-.882-1.603-1.308-.5-.415-.626-.48-.695-.155-.19-.369-.446-.553-.37-.857 0 0-.07-.051-.18-.127a8.802 8.802 0 0 0-.174-.118l-.092-.06c-.015-.009-.031-.028-.046-.026l-.034.075-.294.702c.016-.118.013-.383-.242-.072a2.79 2.79 0 0 0 .32-.524l.154-.316c.027-.051.053-.118.081-.159l.105.076c.28.203.576.476.68.842.164-.295-.126-.867.407-.68a12.399 12.399 0 0 0-1.196-1.05c-.02-.014-.042-.036-.06-.038l-.049.097-.091.19-.167.359c-.104.232-.191.445-.265.643a8.416 8.416 0 0 0-.18.537c-.053.17-.061.276-.162.515-.155.422-.312.833-.538 1.224l-1.767 1.75.039.178c.01.01-.574.05-.574.05-.162.27-.255.459-.327.478-.064.016-.041-.073.009-.195a3.248 3.248 0 0 0-.388.49c-.202-.076-.039-.535.15-.987.201-.105.425-.2.622-.326.171-.488.244-.872-.265-.455-.043.085-.089.204-.164.303.108-.308.13-.534-.047-.402.03.025-1.175 1.38-1.175 1.38.185-.104.48-.24.83-.406-.662.957-1.464 2.113-.531 1.575 0 0-.288.22-.607.4l-.655.339c-1.188 1.28-.92 1.127-2.74 2.306-.156-.064.307-.414-.075-.33-.58.591-1.59.698-2.375.805-.785.152-1.448-.025-1.59.2-1.242.212-.498.37-1.31.546.04-.054.114-.11-.12-.139l-.984.18c-.382-.13.903-.103-.173-.313-.946.063-1.673-.075-2.36-.223a14.75 14.75 0 0 1-1.018-.25c-.318-.138-.638-.3-.976-.485-2.037-.85.653.87-1.041.047-.164-.301-.272-.615-1.206-1.26-.587-.192-.612-.004-1.54-.484l.243-.232c-.744-.563-1.366-.986-1.214-1.184-.689-.36-1.084-.712-1.317-1.038-1.13-.853.274 1.228.52 1.505-.971-1.064-1.677-1.706-1.992-2.518l.942.791c-1.598-2.084-2.069-1.458-2.358-2.812.564.683 1.389 1.36 1.179.845l-.962-.844c-.033-.17.523.507.215.001-.292-.224-.91-.675-1.212-.854h.026l-.24-.27a691.092 691.092 0 0 0-1.073-1.35c.166.178.23.13.027-.158l-1.036-1.089c.15.134.202.124.144-.021-.038-.123-.071-.252-.167-.443-.618-1.071-.674.245-.92-.57.03-.067.046-.056.092.009-.01-.03-.05-.18-.083-.214-.036-.01-.08-.008-.08-.008.017.627-.079.823-.182 1.01.033-.041-.205.329-.326.53-.14.23-.267.447-.366.645-.21.39-.314.693-.194.83-.881.74-.164-.03.349-1.395l-.407.435-.42.421zm3.436-.152l.134.17c-.04-.044-.085-.1-.134-.17zm30.694 1.644l.002-.002-.002.002zm18.52 8.305a.422.422 0 0 1-.09-.022l.09.022zm.643-.017l.036-.011a.236.236 0 0 1-.036.01zm47.934-5.554zm-48.265 3.911c-.268.01-.113.035-.096.09a.341.341 0 0 1 .096-.09zm-105.391.367c.053.015.086.03.103.045a.815.815 0 0 1-.103-.045zm-11.005-1.068l-.073-.05c.03.018.054.035.073.05zm8.904 3.12l-.003-.001h.003zm25.644 1.728zm15.136.636l.071-.042a7.18 7.18 0 0 1-.07.042zm21.284-8.269c.078.278.682.641.962.84-.365-.466-.483-.77-.962-.84zm23.906-.367c.353-.274.637-.548.735-.794a4.848 4.848 0 0 0-.735.794zm62.625-1.767l.037-.01c-.513-.093-.774-.154-.037.01zm1.588.26c.16-.014.154-.048.092-.092-.116.046-.463-.003-.861-.05.103.079.302.127.77.142zm-134.774-1.913l-.252-.389c-.23-.156-.453-.315.252.389z"/></defs><g><g transform="translate(-685 -1716)"><use fill="#db3840" xlink:href="#fsfza"/></g></g></svg>