<svg xmlns="http://www.w3.org/2000/svg" xmlns:xlink="http://www.w3.org/1999/xlink" width="88" height="71" viewBox="0 0 88 71"><defs><path id="dpqla" d="M825.964 1255.313v-12.773l-9.802-14.254h-14.286v27.027h-4.992V1225.8a2.49 2.49 0 0 1 2.496-2.486c19.443 0 19.143-.395 20.157 1.081l10.982 15.97c.685.995.437.95.437 14.95zm-82.964 0v-42.826a2.492 2.492 0 0 1 2.496-2.487h44.98a2.492 2.492 0 0 1 2.496 2.487v42.826a2.49 2.49 0 0 1-2.496 2.487h-16.524v-4.973h14.028v-37.854h-39.988v37.854h4.244v4.973h-6.74a2.49 2.49 0 0 1-2.496-2.487zm69.944-16.249h-6.046v-4.973h7.35c1.69 0 1.802.715 6.622 7.613l-4.097 2.84zm5.934 27.183h9.582v4.973h-84.909v-4.973h12.866c-5.299-5.31-1.526-14.42 6.018-14.42 7.545 0 11.316 9.11 6.017 14.42h38.39c-5.299-5.31-1.526-14.42 6.018-14.42 7.545 0 11.316 9.11 6.018 14.42zm-6.018-2.475c4.625 0 4.625-6.972 0-6.972-4.624 0-4.624 6.972 0 6.972zm-50.43 0c4.618 0 4.618-6.972 0-6.972s-4.618 6.972 0 6.972zm8.123 12.255h5.99V1281h-5.99zm-23.962 0h5.99V1281h-5.99zm11.981 0h5.99V1281h-5.99zm47.923 0h5.99V1281h-5.99zm-23.961 0h5.99V1281h-5.99zm35.942 0h5.99V1281h-5.99zm-23.961 0h6V1281h-6z"/></defs><g><g transform="translate(-743 -1210)"><use fill="#2dbd9b" xlink:href="#dpqla"/></g></g></svg>