<svg xmlns="http://www.w3.org/2000/svg" xmlns:xlink="http://www.w3.org/1999/xlink" width="72" height="79" viewBox="0 0 72 79"><defs><path id="pfmga" d="M1134 1274.323l4.121-2.323 3.879 6.202-3.837 5.798-4.06-2.422 2.28-3.444zm-4.462 70.494l2.462 3.746-3.991 2.437-4.009-6.096 3.608-5.904 4.072 2.31zm3.936 3.183l-.474-4.65c26.349-2.673 37.49-34.405 19.585-53.12l3.383-3.23c20.57 21.505 7.753 57.931-22.494 61zm-26.938-15.07l-3.564 3.07c-21.13-24.126-2.435-62.068 30.028-59.912l-.312 4.67c-28.279-1.86-44.55 31.166-26.153 52.172zm39.13-2.93h-31.332a2.333 2.333 0 0 1-2.334-2.333v-19.5h-.667a2.333 2.333 0 0 1-2.333-2.333v-9.5a2.333 2.333 0 0 1 2.333-2.334h37.334a2.333 2.333 0 0 1 2.333 2.333v9.5a2.333 2.333 0 0 1-2.333 2.334H1148v19.5a2.333 2.333 0 0 1-2.334 2.333zM1113 1304h33v-5h-33zm4 21h11v-17h-11zm15 0h11v-17h-11z"/></defs><g><g transform="translate(-1094 -1272)"><use fill="#dc4250" xlink:href="#pfmga"/></g></g></svg>